<svg width="70.557" height="64.796" viewBox="0 0 70.557 64.796" xmlns="http://www.w3.org/2000/svg">
  <g id="svgGroup" stroke-linecap="round" fill-rule="evenodd" font-size="9pt" fill="#000" style="fill:#000">
    <path
      d="M 39.99 56.104 L 39.551 51.514 A 11.776 11.776 0 0 0 45.277 48.204 A 16.484 16.484 0 0 0 47.119 45.948 A 7.26 7.26 0 0 0 47.539 45.224 Q 47.928 44.446 47.948 43.82 A 2.118 2.118 0 0 0 47.949 43.75 A 1.828 1.828 0 0 0 47.886 43.248 Q 47.667 42.481 46.68 42.481 L 46.533 42.481 Q 46.485 42.53 46.338 42.53 A 14.116 14.116 0 0 1 43.675 46.429 Q 40.764 49.374 36.286 49.674 A 15.486 15.486 0 0 1 35.254 49.707 A 14.893 14.893 0 0 1 32.056 49.38 A 11.013 11.013 0 0 1 28.589 47.998 Q 25.83 46.289 23.535 42.09 L 23.242 42.09 A 2.256 2.256 0 0 0 22.749 42.139 Q 22.055 42.295 21.945 42.949 A 1.592 1.592 0 0 0 21.924 43.213 A 2.523 2.523 0 0 0 22.028 43.907 Q 22.115 44.211 22.275 44.54 A 5.609 5.609 0 0 0 22.51 44.971 A 16.036 16.036 0 0 0 25.253 48.432 A 14.064 14.064 0 0 0 27.393 50.098 Q 29.688 51.661 32.227 51.953 L 31.836 61.182 A 21.165 21.165 0 0 1 25.659 63.941 A 20.503 20.503 0 0 1 23.363 64.391 Q 20.94 64.738 17.562 64.787 A 78.308 78.308 0 0 1 16.431 64.795 A 26.105 26.105 0 0 1 10.441 64.134 A 21.353 21.353 0 0 1 5.762 62.452 Q 0 59.571 0 54.444 A 66.19 66.19 0 0 1 0.089 51.384 Q 0.446 43.961 2.223 26.013 A 1858.466 1858.466 0 0 1 2.539 22.852 Q 3.906 9.717 4.737 4.493 A 15.974 15.974 0 0 1 10.39 1.306 Q 14.29 0 19.58 0 Q 25.421 0 29.623 1.77 A 17.358 17.358 0 0 1 31.397 2.637 L 34.082 11.621 L 32.373 18.799 A 5.773 5.773 0 0 0 32.198 19.772 A 4.969 4.969 0 0 0 32.178 20.215 A 2.141 2.141 0 0 0 32.292 20.946 Q 32.651 21.936 34.131 21.973 L 38.77 2.686 Q 40.772 1.612 43.994 0.806 A 26.809 26.809 0 0 1 48.252 0.114 A 33.072 33.072 0 0 1 51.026 0 A 33.641 33.641 0 0 1 54.744 0.192 Q 58.688 0.632 61.086 2.084 A 9.019 9.019 0 0 1 61.597 2.417 Q 65.039 4.834 65.674 10.547 A 79.892 79.892 0 0 1 65.756 11.173 Q 65.894 12.244 66.113 14.112 A 2954.164 2954.164 0 0 1 67.624 27.327 Q 70.162 50.036 70.504 57.223 A 40.417 40.417 0 0 1 70.557 59.082 A 17.479 17.479 0 0 1 62.304 63.888 Q 59.515 64.654 56.184 64.773 A 34.903 34.903 0 0 1 54.932 64.795 A 33.189 33.189 0 0 1 51.032 64.581 Q 47.052 64.109 44.434 62.598 Q 40.332 60.303 39.99 56.104 Z"
      vector-effect="non-scaling-stroke" />
  </g>
</svg>