<svg width="254.82" height="65.75" viewBox="0 0 254.82 65.75" xmlns="http://www.w3.org/2000/svg">
  <g id="svgGroup" fill-rule="evenodd" font-size="9pt" fill="#000" style="fill:#000">
    <path
      d="M 39.99 56.562 L 39.551 51.972 A 12.709 12.709 0 0 0 47.119 46.405 A 4.22 4.22 0 0 0 47.949 44.208 Q 47.949 42.939 46.68 42.939 L 46.533 42.939 A 0.283 0.283 0 0 1 46.338 42.988 A 11.502 11.502 0 0 1 35.254 50.165 A 12.413 12.413 0 0 1 28.589 48.456 A 15.424 15.424 0 0 1 23.535 42.548 L 23.242 42.548 A 1.087 1.087 0 0 0 21.924 43.671 A 3.502 3.502 0 0 0 22.51 45.429 Q 24.463 48.7 27.393 50.556 A 10.687 10.687 0 0 0 32.227 52.411 L 31.836 61.64 A 21.165 21.165 0 0 1 25.659 64.399 Q 22.412 65.253 16.431 65.253 A 23.536 23.536 0 0 1 5.762 62.909 A 8.833 8.833 0 0 1 0 54.902 A 446.445 446.445 0 0 1 2.539 23.31 Q 3.906 10.175 4.736 4.95 A 21.641 21.641 0 0 1 19.58 0.458 A 23.864 23.864 0 0 1 31.396 3.095 L 34.082 12.079 L 32.373 19.257 A 5.488 5.488 0 0 0 32.178 20.673 Q 32.178 22.382 34.131 22.431 L 38.77 3.144 Q 40.771 2.07 43.994 1.264 A 28.955 28.955 0 0 1 51.025 0.458 Q 58.154 0.458 61.597 2.875 A 10.79 10.79 0 0 1 65.674 11.005 A 222.228 222.228 0 0 1 66.113 14.57 Q 70.557 52.753 70.557 59.54 A 20.517 20.517 0 0 1 54.932 65.253 Q 48.242 65.253 44.434 63.056 A 7.924 7.924 0 0 1 39.99 56.562 Z"
      id="0" vector-effect="non-scaling-stroke" />
    <path
      d="M 128.809 12.714 L 128.809 39.863 Q 128.809 52.265 121.24 58.979 Q 113.672 65.693 100.317 65.693 Q 86.963 65.693 79.541 59.101 Q 71.973 52.509 71.973 39.863 L 71.973 5.048 Q 77.734 0.458 85.303 0.458 Q 91.65 0.458 95.361 3.803 A 12.96 12.96 0 0 1 99.072 13.935 L 99.072 42.402 Q 99.609 42.792 100.317 42.792 A 1.29 1.29 0 0 0 101.343 42.426 A 2.206 2.206 0 0 0 101.66 41.034 L 101.66 13.886 A 31.986 31.986 0 0 0 101.367 9.003 Q 101.074 7.197 100.195 5.39 A 21.393 21.393 0 0 1 114.355 0.507 A 16.623 16.623 0 0 1 124.512 3.681 Q 128.809 6.855 128.809 12.714 Z"
      id="1" vector-effect="non-scaling-stroke" />
    <path
      d="M 192.041 12.616 L 192.041 61.152 A 22.727 22.727 0 0 1 178.027 65.253 A 18.002 18.002 0 0 1 167.578 62.568 Q 163.525 59.833 163.525 54.657 L 163.525 44.989 L 166.992 44.989 A 3.944 3.944 0 0 0 169.507 44.477 A 2.318 2.318 0 0 0 170.02 42.792 L 154.687 42.792 Q 154.687 43.964 155.127 44.477 A 2.896 2.896 0 0 0 157.227 44.989 L 160.937 44.989 L 160.937 61.152 A 23.697 23.697 0 0 1 153.809 64.423 A 28.673 28.673 0 0 1 146.924 65.253 A 18.002 18.002 0 0 1 136.475 62.568 Q 132.422 59.833 132.422 54.657 L 132.422 6.073 A 16.814 16.814 0 0 1 138.696 1.947 A 21.461 21.461 0 0 1 146.484 0.507 Q 152.393 0.507 156.494 3.437 Q 160.937 6.757 160.937 12.616 L 160.937 21.308 L 167.139 21.308 A 2.458 2.458 0 0 0 166.675 19.574 Q 166.211 19.111 165.186 19.111 L 163.525 19.111 L 163.525 6.073 A 16.814 16.814 0 0 1 169.8 1.947 A 21.461 21.461 0 0 1 177.588 0.507 Q 183.496 0.507 187.598 3.437 Q 192.041 6.757 192.041 12.616 Z"
      id="2" vector-effect="non-scaling-stroke" />
    <path
      d="M 219.336 64.423 L 206.982 64.423 Q 201.562 64.423 198.608 61.542 A 11.632 11.632 0 0 1 195.654 52.851 L 195.654 8.905 Q 195.654 5.195 203.101 2.631 A 50.849 50.849 0 0 1 219.727 0.068 Q 235.889 0.068 244.971 7.88 A 31.23 31.23 0 0 1 254.736 32.929 A 29.216 29.216 0 0 1 245.288 56.171 A 38.115 38.115 0 0 1 219.336 64.423 Z M 225.195 34.931 L 225.195 30.683 A 33.791 33.791 0 0 0 224.756 23.969 A 1.867 1.867 0 0 0 223.145 22.138 A 2.006 2.006 0 0 0 221.826 22.626 A 113.334 113.334 0 0 0 222.119 24.97 A 60.856 60.856 0 0 1 222.314 31.22 L 222.314 34.394 A 56.151 56.151 0 0 1 222.168 39.228 A 457.07 457.07 0 0 0 221.924 41.816 L 221.826 42.988 A 2.006 2.006 0 0 0 223.145 43.476 A 1.867 1.867 0 0 0 224.756 41.645 A 33.791 33.791 0 0 0 225.195 34.931 Z"
      id="3" vector-effect="non-scaling-stroke" />
  </g>
</svg>